# xmcd CD database file
#
# Track frame offsets:
#	182
#	8312
#	22502
#	35485
#	50065
#	60167
#	71730
#	82745
#	96345
#	106512
#	117892
#	128162
#	138385
#	150652
#	160362
#	176555
#
# Disc length: 2513 seconds
#
# Revision: 0
# Processed by: cddbd v1.5.1PL0 Copyright (c) Steve Scherf et al.
# Submitted via: CDex 1.51
#
DISCID=b709cf10
DTITLE=Náplava - Od patku do nedìle
DYEAR=1998
DGENRE=Country
TTITLE0=Slapu loukou
TTITLE1=Hraj, Tome
TTITLE2=Serzant
TTITLE3=Kdo hledá
TTITLE4=Vítr kamarád
TTITLE5=Dál,, co dál
TTITLE6=Ríkals, jen zavolej
TTITLE7=Od pátku do nedele
TTITLE8=Poslední vlak
TTITLE9=Palec
TTITLE10=Zlatej hoch
TTITLE11=Az projdes
TTITLE12=Uz vim proc
TTITLE13=Tejden
TTITLE14=Rybar
TTITLE15=Hra na schovavanou
EXTD=YEAR: 1998
EXTT0=
EXTT1=
EXTT2=
EXTT3=
EXTT4=
EXTT5=
EXTT6=
EXTT7=
EXTT8=
EXTT9=
EXTT10=
EXTT11=
EXTT12=
EXTT13=
EXTT14=
EXTT15=
PLAYORDER=
